<?xml version="1.0" encoding="UTF-8" standalone="no"?>
<svg
   width="406.13919"
   height="406.33383"
   viewBox="0 0 406.13919 406.33383"
   version="1.1"
   id="svg7666"
   sodipodi:docname="logo-new.svg"
   inkscape:version="1.2.2 (b0a8486541, 2022-12-01)"
   xmlns:inkscape="http://www.inkscape.org/namespaces/inkscape"
   xmlns:sodipodi="http://sodipodi.sourceforge.net/DTD/sodipodi-0.dtd"
   xmlns="http://www.w3.org/2000/svg"
   xmlns:svg="http://www.w3.org/2000/svg">
  <defs
     id="defs7670" />
  <sodipodi:namedview
     id="namedview7668"
     pagecolor="#ffffff"
     bordercolor="#666666"
     borderopacity="1.0"
     inkscape:showpageshadow="2"
     inkscape:pageopacity="0.0"
     inkscape:pagecheckerboard="0"
     inkscape:deskcolor="#d1d1d1"
     showgrid="false"
     inkscape:zoom="1.8036663"
     inkscape:cx="4.1581972"
     inkscape:cy="138.32936"
     inkscape:window-width="1920"
     inkscape:window-height="1003"
     inkscape:window-x="1920"
     inkscape:window-y="40"
     inkscape:window-maximized="1"
     inkscape:current-layer="svg7666" />
  <path
     fill="#2c5434"
     d="M 46.771264,58.605136 C 71.367964,29.381126 110.31683,11.857606 148.00138,9.0121957 189.773,5.6096057 231.1423,19.260306 262.6842,46.855136 c 30.75066,26.58863 49.62404,64.346014 52.43621,104.900714 2.2189,30.67429 -4.77792,62.86957 -20.43822,89.48719 -5.41148,9.19734 -11.90272,17.06035 -18.85075,25.08602 l 9.88323,9.86484 c 0.96732,-0.47659 1.94737,-0.92771 2.93802,-1.35268 6.58246,-2.74287 13.99718,-2.68913 20.53863,0.14707 2.26698,0.98571 6.7359,4.27516 8.54538,6.0493 24.41994,23.95325 48.73946,48.10588 72.6333,72.58098 8.58852,8.79641 9.48443,19.4716 4.47599,30.33771 -3.21168,6.01889 -8.64155,10.55074 -15.13844,12.63387 -17.83041,5.83646 -27.81052,-8.10344 -38.85411,-19.18522 l -23.99142,-23.9787 -24.19366,-24.19083 c -6.38658,-6.39224 -16.15385,-14.42145 -18.52973,-23.06795 -1.96222,-7.07459 -0.97086,-14.64206 2.74711,-20.97208 l -10.13355,-10.2382 C 239.16302,299.67832 210.81298,312.7605 173.50532,315.36478 132.63666,317.84744 92.444714,304.07724 61.684854,277.05515 30.563684,249.76648 11.548154,211.24048 8.814494,169.94121 6.259704,128.35837 19.102884,89.876926 46.771274,58.605116 Z"
     id="path7632"
     style="fill:#2d5034;fill-opacity:1;stroke:#2d5034;stroke-width:17;stroke-dasharray:none;stroke-opacity:1" />
  <path
     fill="#fbfce9"
     d="M 56.541354,67.402246 C 108.68624,9.1663557 198.16848,4.2272157 256.40721,56.370686 314.64523,108.51344 319.58791,197.99496 267.44798,256.23581 215.3038,314.47949 125.81591,319.42288 67.574334,267.27659 9.331364,215.13029 4.392224,125.64239 56.541354,67.402246 Z"
     id="path7634" />
  <path
     fill="#2c5434"
     d="m 198.88577,62.988356 c 2.97701,-0.188 3.70001,-0.498 5.717,1.77401 0.92101,3.69099 -1.365,7.5 -2.933,11.19599 5.54201,0.097 10.599,-0.379 16.08701,-0.72499 2.92899,-0.18401 5.34499,0.36999 6.217,3.41199 -0.68201,3.626 -2.629,4.80401 -5.35201,7.29 30.92301,26.081004 8.09,72.199994 -31.71899,67.434994 -38.16501,-7.99199 -46.13901,-54.145994 -11.687,-71.849984 -2.16003,-2.03897 -6.646,-6.32201 -4.96201,-9.399 4.29501,-2.10101 15.26001,3.26999 20.598,5.03199 2.231,-5.684 3.406,-10.069 8.034,-14.165 z"
     id="path7636"
     style="fill:#2d5034;fill-opacity:1" />
  <path
     fill="#bb4446"
     d="m 180.91978,87.938356 c 1.01599,0.112 0.57699,-0.089 1.322,0.59301 -0.512,3.09899 -15.169,18.793994 -5.315,19.561994 4.264,0.33199 13.236,-8.953004 17.18099,-12.213004 4.05701,4.143994 11.691,17.625994 17.636,12.097004 1.73,-4.25299 -2.469,-12.475004 -3.77499,-17.174004 2.88,-1.946 9.30999,3.25301 11.106,5.568 5.61499,7.241004 6.76399,14.285994 5.817,23.240994 -0.31901,2.02 -0.82501,4.006 -1.51101,5.933 -5.582,16.089 -25.46199,24.54101 -41.17199,18.77001 -15.53601,-5.646 -24.755,-21.19601 -20.32101,-37.48501 2.872,-10.547984 9.71801,-14.873994 19.03201,-18.891994 z"
     id="path7638" />
  <path
     fill="#2c5434"
     d="m 249.24077,142.39835 c 1.63501,0.333 2.115,0.311 3.445,1.35701 1.02,3.25899 -5.32599,19.20099 -6.72999,23.18299 6.47,-4.31599 12.852,-11.515 19.724,-15.01899 1.225,-0.62501 2.092,0.011 3.11099,0.534 2.29801,3.52899 -2.589,7.05699 -5.141,9.20399 -4.362,3.671 -8.91499,7.213 -13.378,10.765 3.87701,-0.93 7.70501,-2.05799 11.55701,-2.976 3.46,-0.824 8.62999,-3.09599 11.13399,0.10901 0.116,1.779 0.19301,1.68099 -0.54199,3.28199 -2.21801,2.035 -18.885,5.462 -23.52601,6.895 9.32901,20.225 -3.73599,26.886 -17.824,37.959 -6.208,4.879 -12.60499,9.66301 -18.87499,14.45701 -18.88801,14.75999 -69.395,47.036 -34.723,-5.094 12.11899,-18.22201 24.04999,-36.87201 38.01799,-53.75101 6.42601,-7.766 13.656,-6.83099 22.217,-3.78599 3.37101,-7.911 6.08201,-17.03701 9.283,-25.08701 0.376,-0.946 1.383,-1.50901 2.25,-2.032 z"
     id="path7640"
     style="fill:#2d5034;fill-opacity:1" />
  <path
     fill="#bb4446"
     d="m 214.97477,184.25835 c 2.876,-4.134 6.224,-9.311 11.668,-9.982 12.263,-1.512 24.86101,15.27 15.209,25.553 -4.29199,4.571 -10.02899,8.53 -14.98999,12.299 -5.63401,4.27801 -11.208,8.636 -16.718,13.072 l -1.30501,-0.505 c 0.52601,-1.321 0.84501,-2.073 0.227,-3.449 -2.308,-5.13899 -6.22,-10.504 -9.383,-15.171 3.58301,-5.104 7.217,-10.16999 10.903,-15.199 l 0.54803,0.44097 c 4.37501,3.58301 10.349,15.787 14.887,10.836 0.909,-4.186 -8.24799,-13.9 -11.046,-17.89499 z"
     id="path7642"
     style="fill:#e96314;fill-opacity:1" />
  <path
     fill="#bb4446"
     d="m 195.62278,212.26036 c 2.43199,3.84 5.85999,10.47599 8.58799,13.70999 l 1.20701,1.404 0.075,1.163 c -3.523,2.914 -7.29101,5.36901 -10.74901,8.439 l -0.58496,0.50903 c -2.53301,-3.921 -4.86901,-7.01901 -7.80701,-10.616 3.346,-4.30799 6.10201,-9.899 9.27101,-14.609 z"
     id="path7644"
     style="fill:#e96314;fill-opacity:1" />
  <path
     fill="#bb4446"
     d="m 182.10077,233.81535 c 2.04301,2.15601 3.99901,4.73801 5.969,7.028 -3.422,1.92701 -5.874,3.285 -9.495,4.94401 -1.592,0.686 -2.988,1.35599 -4.627,2.01599 2.93801,-6.624 4.02101,-7.884 8.153,-13.988 z"
     id="path7646"
     style="fill:#e96314;fill-opacity:1" />
  <path
     fill="#c0684b"
     d="m 205.41778,227.37435 c 1.21099,-0.935 2.19,-2.006 3.42099,-2.679 l 1.30501,0.505 c -1.59701,1.356 -2.991,2.101 -4.651,3.337 z"
     id="path7648" />
  <path
     fill="#2c5434"
     d="m 91.623764,157.54035 c 16.498016,-0.469 23.917016,6.021 30.553006,20.156 4.167,-9.497 10.679,-17.73899 21.672,-19.543 3.2,-0.525 8.41201,-1.24099 11.16201,0.602 0.63499,0.989 0.99399,1.897 0.96999,3.08 -0.415,20.524 -10.163,31.283 -30.415,31.814 l -0.031,15.195 c 6.003,-10.19799 14.537,-14.782 26.749,-13.17099 5.113,0.67399 8.18499,4.42099 6.788,9.664 -1.965,7.37299 -5.931,13.97999 -12.68401,17.97699 -6.787,4.084 -12.324,2.01801 -19.19399,0.47301 0.622,9.778 3.052,17.918 7.571,26.57399 1.761,3.371 4.841,7.25001 0.858,9.923 -9.235,0.53801 -14.319,-29.419 -15.007,-36.10599 -3.247,1.60399 -5.85701,2.725 -9.50401,3.16999 -6.287,0.767 -12.610006,-1.118 -17.450006,-5.203 -4.033,-3.42499 -8.57099,-11.069 -9.107,-16.259 -0.216,-6.81699 12.03401,-6.811 16.426006,-6.65299 7.553,0.27099 13.152,4.24199 17.751,9.61499 l 0.736,-14.832 c -20.583996,-0.12399 -30.455006,-11.972 -30.293006,-32.062 0.018,-2.281 0.87201,-3.063 2.449,-4.414 z"
     id="path7650"
     style="fill:#2d5034;fill-opacity:1" />
  <path
     fill="#488454"
     d="m 146.48077,164.68936 c 3.69101,-0.24201 3.01801,0.10899 2.55801,3.81299 -0.78001,6.26701 -4.81801,12.925 -10.26601,16.208 -3.19,1.922 -5.59999,2.196 -9.12199,2.549 -0.455,-0.034 -3.15,0.14501 -3.098,-0.983 0.11099,-3.199 1.74599,-6.117 3.005,-8.947 3.757,-8.44 8.039,-11.42 16.92299,-12.63999 z"
     id="path7652" />
  <path
     fill="#488454"
     d="m 95.894764,164.47835 c 0.808,0.127 1.758,0.33201 2.55901,0.409 11.240996,1.083 18.265996,12.515 19.734996,22.83301 -15.235,-1.23101 -21.728006,-7.86001 -22.294006,-23.24201 z"
     id="path7654" />
  <path
     fill="#488454"
     d="m 96.074774,205.61135 c 10.882996,-0.988 15.271006,2.114 20.641006,11.475 -1.57301,1.405 -1.651,1.478 -3.313,2.643 l -0.82701,0.59201 c -5.124,1.48699 -8.187,0.72899 -12.816006,-1.95 -3.355,-1.94201 -7.993,-7.58001 -7.554,-11.656 0.049,-0.45 3.448,-1.02301 3.86901,-1.10401 z"
     id="path7656" />
  <path
     fill="#488454"
     d="m 144.92877,202.10335 c 8.93101,-0.458 9.20301,1.614 4.452,9.408 -2.535,4.16 -6.76499,6.248 -11.51899,7.078 -4.45301,-0.045 -11.636,0.13501 -7.293,-6.04699 4.41799,-6.29001 6.883,-8.82001 14.35999,-10.43901 z"
     id="path7658" />
  <path
     fill="#2c5434"
     d="m 130.72677,57.873356 c 1.80701,0.35101 1.80201,0.439 3.32301,1.34 2.001,2.665 -0.009,15.231 0.19,19.321 0.926,19.003 6.351,40.814994 -11.10701,54.462994 -13.84699,10.825 -31.520996,7.36 -47.560996,5.309 -3.26401,-0.371 -6.101,-0.32099 -7.54901,-3.632 0.63901,-4.094 8.62701,-6.63 10.803,-11.286 4.245,-9.084 2.98,-17.061 8.32101,-26.119994 7.31799,-12.411 19.119996,-14.363 29.619006,-23.07 6.128,-5.08299 8.97999,-10.488 13.96099,-16.325 z"
     id="path7660"
     style="fill:#2d5034;fill-opacity:1" />
  <path
     fill="#bb4446"
     d="m 126.61678,74.901366 c 0.553,1.54699 2.125,28.368994 1.954,31.135984 -1.71,27.748 -22.781,28.203 -43.008016,26.859 l 7.51,-7.151 c 1.926,-2.094 7.037006,-7.36999 3.971,-10.227 -4.61,-0.54899 -7.71,4.414 -10.221,7.57201 2.14,-10.08201 4.328,-24.339004 13.565996,-30.217004 9.30001,-5.917 17.96801,-8.891 25.71501,-17.403 z"
     id="path7662"
     style="fill:#488454;fill-opacity:1" />
  <path
     fill="#fbfce9"
     d="m 286.88422,292.80526 c 7.61554,-8.96045 14.42851,-9.72625 23.01704,-1.20986 23.31825,23.12169 46.60399,46.30276 69.82254,69.52416 5.5317,5.53311 6.34841,9.42997 3.48533,16.69125 -1.28338,1.83212 -2.65872,3.58928 -4.56366,4.81539 -3.27744,2.11072 -6.74368,2.56186 -10.4871,1.52382 -2.77186,-0.76791 -5.51119,-3.27956 -7.62191,-5.18521 -7.781,-7.02581 -70.72199,-69.77165 -73.36586,-74.74614 -1.86747,-3.51502 -1.41208,-7.76615 -0.28638,-11.41341 z"
     id="path7664" />
</svg>
