<?xml version="1.0" encoding="UTF-8" standalone="no"?>
<svg
   width="179.57108"
   height="281.98639"
   viewBox="0 0 179.57107 281.98639"
   version="1.1"
   id="svg144"
   sodipodi:docname="logo-minified-1.svg"
   inkscape:version="1.2.2 (b0a8486541, 2022-12-01)"
   inkscape:export-filename="logo-minified-1-pl.svg"
   inkscape:export-xdpi="96"
   inkscape:export-ydpi="96"
   xmlns:inkscape="http://www.inkscape.org/namespaces/inkscape"
   xmlns:sodipodi="http://sodipodi.sourceforge.net/DTD/sodipodi-0.dtd"
   xmlns="http://www.w3.org/2000/svg"
   xmlns:svg="http://www.w3.org/2000/svg">
  <defs
     id="defs148" />
  <sodipodi:namedview
     id="namedview146"
     pagecolor="#ffffff"
     bordercolor="#666666"
     borderopacity="1.0"
     inkscape:showpageshadow="2"
     inkscape:pageopacity="0.0"
     inkscape:pagecheckerboard="0"
     inkscape:deskcolor="#d1d1d1"
     showgrid="false"
     inkscape:zoom="1.6881838"
     inkscape:cx="91.814647"
     inkscape:cy="175.04018"
     inkscape:window-width="1920"
     inkscape:window-height="1003"
     inkscape:window-x="1920"
     inkscape:window-y="40"
     inkscape:window-maximized="1"
     inkscape:current-layer="svg144" />
  <path
     fill="#d4e5b6"
     d="m 31.63978,136.52156 0.05476,7.10417 c 5.443452,-1.95952 17.624997,-2.22441 23.788687,-2.51012 20.738687,-1.14643 41.523803,-1.19524 62.268443,-0.14583 8.28988,0.38273 18.98393,0.83869 27.05535,2.26309 0.0816,-1.91547 -0.019,-4.60655 -0.0339,-6.58214 5.73333,-0.0905 10.16249,1.09345 14.87976,4.4494 11.1494,7.93334 8.98809,23.01964 8.96964,35.25416 l -0.0476,34.88929 v 31.34582 c 0.0756,11.63274 2.19226,25.20179 -7.41905,33.73631 -8.31547,7.38392 -21.16369,5.42857 -31.74345,5.42023 l -39.614873,-0.0292 -39.911898,0.075 c -5.656547,0.0119 -16.289283,0.32202 -21.64583,-0.29941 -3.821428,-0.44107 -7.447618,-1.92559 -10.481546,-4.29047 -4.536904,-3.47798 -7.514284,-8.60952 -8.2815463,-14.2744 C 8.8927982,258.32269 9.0922029,249.06615 9.0802982,244.2102 l -0.022619,-33.92678 0.026191,-33.83036 c 0.024366,-19.41781 -2.226824,-36.95947 22.5559098,-39.9315 z"
     id="path94"
     style="fill:#d6e6b2;fill-opacity:1;stroke-width:0.595238" />
  <path
     fill="#518552"
     d="m 31.63978,136.52156 0.05476,7.10417 c -12.844641,7.95476 -10.095831,19.29047 -10.073808,32.64583 l 0.04821,35.22321 0.0042,24.31368 c 0.0024,7.16667 -0.961309,16.21131 3.001786,22.39286 6.493451,10.12916 18.020235,8.50773 28.283924,8.49999 l 26.32321,0.005 38.821428,-0.009 c 9.09345,-0.007 22.11309,1.39167 29.85178,-3.30595 10.51071,-6.37976 8.15535,-22.8238 8.15178,-33.67202 l -0.0905,-38.9738 c -0.0292,-6.85714 -0.0738,-13.83631 0.006,-20.68333 0.13452,-11.49226 1.11667,-21.11369 -11.21548,-26.82976 0.0816,-1.91547 -0.019,-4.60655 -0.0339,-6.58214 5.73333,-0.0905 10.16249,1.09345 14.87976,4.4494 11.1494,7.93334 8.98809,23.01964 8.96964,35.25416 l -0.0476,34.88929 v 31.34582 c 0.0756,11.63274 2.19226,25.20179 -7.41905,33.73631 -8.31547,7.38392 -21.16369,5.42857 -31.74345,5.42023 l -39.614874,-0.0292 -39.911898,0.075 c -5.656547,0.0119 -16.289283,0.32202 -21.64583,-0.29941 -3.821428,-0.44107 -7.447618,-1.92559 -10.481546,-4.29047 -4.536904,-3.47798 -7.514284,-8.60952 -8.2815463,-14.2744 -0.5839285,-4.60477 -0.3845238,-13.86131 -0.3964285,-18.71726 l -0.022619,-33.92678 0.026191,-33.83036 C 9.1082364,157.03525 6.8570462,139.49359 31.63978,136.52156 Z"
     id="path96"
     style="fill:#488454;fill-opacity:1;stroke-width:0.595238" />
  <path
     fill="#518552"
     d="m 76.080249,152.46442 c 10.381546,-1.55476 22.056545,2.05893 30.273801,8.41131 8.71548,6.67619 14.41964,16.54285 15.85655,27.42678 1.50417,12.05892 -1.78036,22.23333 -9.15298,31.68868 1.30715,1.40298 2.82322,3.39643 4.48274,4.35357 3.27917,1.89227 3.79703,0.0179 8.55952,4.31548 3.25893,2.94107 17.52619,16.00119 17.62322,19.57381 0.0595,2.17916 -1.0631,4.34464 -2.5256,5.89345 -1.39405,1.47559 -3.08393,2.57678 -5.17619,2.5744 -5.32797,-0.007 -11.51666,-8.32321 -15.06607,-11.96845 -1.85714,-1.79405 -8.20297,-7.61666 -8.74821,-9.51964 -1.72321,-6.01309 -0.14286,-4.07738 -5.48929,-8.9619 -5.04285,4.60297 -12.971422,7.65476 -19.646421,8.63511 -11.010117,1.54584 -22.185115,-1.31845 -31.093447,-7.97023 -8.75357,-6.54881 -14.561903,-16.29345 -16.158331,-27.10833 -1.605952,-11.07619 1.309524,-22.33333 8.091665,-31.2369 7.066071,-9.2631 16.709521,-14.55298 28.169043,-16.10714 z"
     id="path98"
     style="fill:#488454;fill-opacity:1;stroke-width:0.595238" />
  <path
     fill="#d4e5b6"
     d="m 77.557035,161.5293 c 17.748211,-1.88453 33.673805,10.95119 35.602375,28.69464 1.92798,17.74345 -10.86785,33.70059 -28.606543,35.6732 -17.801187,1.97917 -33.826185,-10.87202 -35.761304,-28.67737 -1.935118,-17.80595 10.95476,-33.7994 28.765472,-35.69047 z"
     id="path100"
     style="fill:#d6e6b2;fill-opacity:1;stroke-width:0.595238" />
  <path
     fill="#a5534b"
     d="m 59.899895,180.57691 26.634519,-0.0667 c 4.579166,-0.009 10.818451,-0.20119 15.277376,0.16428 0.57977,1.10536 0.40417,3.33631 0.38988,4.68393 l -27.713682,0.0321 c -3.318452,0.003 -11.314879,0.225 -14.219641,-0.28869 -0.6,-1.11964 -0.394643,-3.16666 -0.368452,-4.525 z"
     id="path102"
     style="fill:#bb4446;fill-opacity:1;stroke-width:0.595238" />
  <path
     fill="#a5534b"
     d="m 59.889181,191.82036 c 10.998807,0.0738 22.024996,-0.16845 33.026185,-0.11607 2.954761,0.0143 5.811904,-0.0982 8.762494,0.19345 0.71786,1.03691 0.52798,3.28572 0.5256,4.65119 l -27.095234,-0.0161 c -4.291666,0.002 -10.885118,0.18631 -14.982736,-0.2119 -0.50119,-1.03036 -0.27619,-3.23512 -0.236309,-4.5006 z"
     id="path104"
     style="fill:#bb4446;fill-opacity:1;stroke-width:0.595238" />
  <path
     fill="#a5534b"
     d="m 82.532034,202.98524 c 1.275595,-0.0298 2.380357,-0.005 3.654761,0.0399 1.776786,0.97203 2.802381,1.9 1.733929,3.86786 -2.611309,1.52381 -18.500593,0.87202 -22.501782,0.84881 -1.953571,0.0649 -3.214881,0.14226 -5.179761,-0.13274 -0.728572,-1.04286 -0.484524,-2.25535 -0.433929,-3.61012 1.979762,-1.4875 18.787497,-1.00595 22.726782,-1.01369 z"
     id="path106"
     style="fill:#bb4446;fill-opacity:1;stroke-width:0.595238" />
  <path
     fill="#a5534b"
     d="M 46.489778,33.579918 C 48.26954,28.35355 49.649897,24.854383 52.852872,20.322539 63.749894,4.9045652 83.934415,-0.915672 101.6731,5.1731366 c 10.47619,3.6945232 19.07738,11.3626174 23.94583,21.3471994 9.26131,-4.668928 18.35238,-6.473273 28.46309,-3.132321 8.40417,2.802082 15.3244,8.871665 19.19881,16.83833 3.96786,7.987499 4.58214,17.229164 1.70536,25.671425 -2.80298,8.326784 -8.82857,15.18214 -16.72738,19.029759 -4.65655,2.251785 -8.80417,3.045237 -13.88452,3.384523 l 0.39881,46.338678 c 0.0149,1.97559 0.11547,4.66667 0.0339,6.58214 -8.07142,-1.4244 -18.76547,-1.88036 -27.05535,-2.26309 -20.744638,-1.04941 -41.529754,-1.0006 -62.268441,0.14583 -6.16369,0.28571 -18.345235,0.5506 -23.788687,2.51012 l -0.05476,-7.10417 0.09226,-42.907128 C 13.192164,88.580504 -0.06438118,75.65134 3.3141897,55.925152 4.6975228,47.973963 9.1868078,40.899559 15.792164,36.262655 c 6.694642,-4.681249 14.987497,-6.480237 23.019639,-4.994046 2.859523,0.52619 4.97619,1.280357 7.677975,2.311309 z"
     id="path108"
     style="fill:#bb4446;fill-opacity:1;stroke:#bb4446;stroke-width:5.595;stroke-dasharray:none;stroke-opacity:1" />
  <path
     fill="#d4e5b6"
     d="m 84.204058,14.098373 c 1.038095,-0.173154 4.00119,-0.16119 5.093451,-0.109821 8.705951,0.353274 16.912501,4.160416 22.804761,10.579344 6.97202,7.70357 8.25535,15.626307 7.77738,25.531067 2.69345,0.461309 5.80416,0.735714 8.55238,1.038095 0.60893,-5.524404 0.6744,-8.347618 -0.0821,-13.833926 5.77976,-3.257738 11.33274,-5.096428 18.075,-4.34125 6.26845,0.725298 11.98928,3.921012 15.89286,8.879344 4.10595,5.152976 5.9744,11.736903 5.18809,18.279164 -0.74107,6.298213 -3.95655,12.044046 -8.93809,15.96964 -7.22322,5.629761 -14.64583,5.705952 -23.25714,4.661309 l 0.38035,32.064871 c -18.67023,-1.12381 -37.372014,-1.64167 -56.075582,-1.55298 -4.159523,0.0345 -8.317856,0.13096 -12.474403,0.28929 0.171429,-6.87261 0.08571,-14.088088 0.108333,-20.986897 C 75.163583,88.115028 79.521916,86.15491 86.480843,81.654315 85.096915,79.269792 83.268939,76.537054 81.774891,74.170388 67.673703,83.034672 52.148706,85.960267 35.597518,84.987053 23.677877,84.285862 13.200498,78.114435 12.024307,65.281699 c -0.516071,-5.738095 1.263691,-11.445832 4.949404,-15.873807 3.544643,-4.307738 8.683927,-6.995833 14.244641,-7.450594 9.111903,-0.785715 15.56845,3.419047 22.17202,8.991665 0.314881,-19.659164 10.489284,-34.592792 30.813686,-36.85059 z"
     id="path110"
     style="fill:#d6e6b2;fill-opacity:1;stroke-width:0.595;stroke-dasharray:none" />
  <path
     fill="#d4e5b6"
     d="m 73.877869,120.38645 c 20.598211,-0.3381 41.201781,0.22083 61.751181,1.675 l 0.0256,11.01607 c -9.50595,-1.06369 -22.5113,-1.30536 -32.15237,-1.63036 -20.210117,-0.27917 -42.788685,-0.3875 -62.942253,1.62143 l 0.01607,-11.02798 c 10.884523,-0.97321 22.351187,-1.24047 33.301781,-1.65416 z"
     id="path112"
     style="fill:#d6e6b2;fill-opacity:1;stroke-width:0.595238" />
  <path
     fill="#d4e5b6"
     d="m 55.834419,93.128123 c 1.032143,-0.243453 1.471429,-0.444643 2.444643,0.03571 0.447024,2.550595 0.157738,15.535117 0.139881,18.657737 l -14.160117,0.8 c -1.583333,0.0857 -2.408333,0.42143 -3.520238,-0.3006 -0.492857,-3.875 -0.18988,-13.776185 -0.160119,-18.110709 5.189285,0.01012 10.115475,-0.514285 15.25595,-1.082142 z"
     id="path114"
     style="stroke-width:0.595238" />
</svg>
